PathFileType	4	(X/Y/Z)	Patient4_TMGait_0pt2_01_left_06.trc.trc
DataRate	CameraRate	NumFrames	NumMarkers	Units	OrigDataRate	OrigDataStartFrame	OrigNumFrames
43.343653250774	43.343653250774	5	33	mm	43.343653250774	53	       141
Frame#	Time	Sacral			L.Shoulder			Chest			R.Shoulder			Neck			R.ASIS			L.ASIS			R.Thigh.Superior			R.Thigh.Lateral			R.Thigh.Inferior			R.Patella			L.Thigh.Superior			L.Thigh.Lateral			L.Thigh.Inferior			L.Patella			L.Shank.Superior			L.Shank.Lateral			L.Shank.Inferior			R.Shank.Superior			R.Shank.Lateral			R.Shank.Inferior			R.Heel			R.Midfoot.Superior			R.Midfoot.Lateral			R.Toe			L.Heel			L.Midfoot.Lateral			L.Midfoot.Superior			L.Toe			L.Elbow			L.Wrist			R.Elbow			R.Wrist			
		X1	Y1	Z1	X2	Y2	Z2	X3	Y3	Z3	X4	Y4	Z4	X5	Y5	Z5	X6	Y6	Z6	X7	Y7	Z7	X8	Y8	Z8	X9	Y9	Z9	X10	Y10	Z10	X11	Y11	Z11	X12	Y12	Z12	X13	Y13	Z13	X14	Y14	Z14	X15	Y15	Z15	X16	Y16	Z16	X17	Y17	Z17	X18	Y18	Z18	X19	Y19	Z19	X20	Y20	Z20	X21	Y21	Z21	X22	Y22	Z22	X23	Y23	Z23	X24	Y24	Z24	X25	Y25	Z25	X26	Y26	Z26	X27	Y27	Z27	X28	Y28	Z28	X29	Y29	Z29	X30	Y30	Z30	X31	Y31	Z31	X32	Y32	Z32	X33	Y33	Z33	

53	13.869714285714	801.272761611979	1004.905715045377	433.984855002467	967.976074253939	1435.422270076472	251.055134530761	1074.891817415950	1367.233678069677	409.856364727215	993.994745526264	1436.566562972960	584.904145203857	949.766917047746	1495.805846116758	408.716228448564	1030.485313059713	939.408537378089	549.832148423597	1016.563235126717	964.205283220224	276.338943353195	1057.862561152715	731.110615527175	530.490267825395	971.620388205588	628.682748725932	599.470223778973	1045.534695998596	563.859645089360	525.395231786466	1032.809703086211	460.741301274848	547.202913174289	1070.994393237637	753.443316344065	315.118901292761	989.588865616343	629.006812597812	258.097982931309	1073.894252721371	558.688843769580	327.164545376518	1075.338040379802	488.365944689749	339.224433550447	1047.314445486853	414.832491568472	333.806963220156	958.113717707280	300.061764587933	282.151704858667	1001.579850651572	191.490763100125	361.244197113853	960.970657536530	392.510821692276	558.958369994645	846.568260252500	343.434391995738	623.708782490426	841.263031428079	231.871774384088	577.498275543415	646.342722192587	143.261012641187	553.104778690633	818.613565132925	117.258658779287	604.656829752010	711.308792300702	105.265932479226	634.567440816913	897.175544642249	34.211940260676	645.309565316536	867.418763705707	38.270556203181	401.520966371258	944.606873346305	35.905112200463	323.652755840924	1027.095006861743	96.797547866104	353.442896850001	1156.201571434632	45.315403227609	330.845649738214	986.788384797164	1099.591342883101	98.422053763951	1081.833289155137	854.655257923652	121.183262451364	1160.417388454038	1134.827921794135	690.044944848492	1411.469013242414	1082.364942599581	644.647674971057	
54	13.892785714286	800.128611363163	1003.448471994597	429.473442223763	968.931858734691	1434.868200088223	249.626824996531	1073.410388600968	1366.422128657746	409.851300148657	989.977836572353	1435.076698790881	584.032959594262	948.488618973512	1494.861987635353	407.371718161227	1028.867603087155	938.596252337953	547.417249549344	1017.525503568528	963.794633125377	273.827135716145	1062.284255662017	732.269296597550	526.961607543335	979.393465576053	627.624038312391	595.345542779547	1055.287902543037	564.665072874178	520.905179095395	1044.369217829038	459.986165593154	543.385249715498	1071.798135413024	752.656593447314	313.347083078693	990.675390632319	627.937683802188	256.428172192529	1074.233432360040	557.734902814347	326.590932843598	1075.605775781821	487.215817829049	338.869861958643	1046.661864722954	413.537077357134	333.531111159525	956.754086686169	299.471544533639	281.729239893459	998.304835975517	190.763521008355	361.369229772990	970.584784853104	392.458765000891	555.243949373964	854.086754536709	347.300224309787	619.108821021428	846.256063853835	235.442581517605	574.112992959071	649.864590256265	154.516182557171	547.360195225912	819.450156675618	120.322436722400	602.534974155419	711.159892897265	114.237296331058	630.266334321760	892.133543988876	33.563020484187	645.232639344390	862.803757133825	38.262223685152	401.471677705034	940.015289378372	35.917910059712	323.631455417284	1022.574429286424	96.713021448448	353.558488008158	1151.652444063953	45.070221272421	330.894285190879	996.858015880347	1099.440934449085	96.778465270404	1101.619562902770	858.689280646098	121.648539520445	1146.233634066506	1126.552303381410	691.238128877537	1395.166443657652	1059.652414777516	652.465596314561	
55	13.915857142857	798.937408208635	1001.940555176008	425.195482029235	969.947663949311	1434.172697117867	248.441741225556	1071.987360509815	1365.460312908801	410.038146965110	986.068612904233	1433.512278514493	583.318627236011	947.326153047913	1493.815826843112	406.224787264131	1027.155302161555	937.683671660746	545.274011840915	1018.486289159993	963.300094309368	271.578934519046	1066.797277556552	733.759287303360	523.335451152003	987.584016973013	626.824861497890	591.090145196179	1065.292963665896	565.954294485317	516.016190282008	1056.401657250968	459.724380161538	539.009028224514	1072.672488116885	751.858561661265	311.940285327273	991.916221743770	626.802571760762	255.064579538085	1074.697748342077	556.763071968185	326.433916959124	1076.033601118816	486.013719726160	338.885320840918	1046.108910589215	412.200777859351	333.538572543087	955.485929550450	298.903532672725	281.524673890888	995.069549493886	190.010398276729	361.605042184910	980.757328932555	392.800731895722	551.097381324154	862.269298258371	351.543582056022	614.082746172483	851.974085804314	239.439089433926	570.346686402282	654.388787890099	166.314507811339	541.064693177890	820.998429313367	123.804946080752	600.042755055242	711.835278030759	123.779010442520	625.459243914527	887.482134797942	32.925454945612	644.861034723306	858.189252173549	38.257246379302	401.423574927937	935.428468357337	35.938890704893	323.618975805673	1018.060192654863	96.622903292544	353.707410952308	1147.105266964238	44.809140389859	330.945956710526	1006.628366393156	1099.240915739934	95.680085355501	1121.838633037571	863.586513319836	122.684243625088	1131.015447969877	1118.197432102090	692.549474577594	1376.586426944714	1036.557912266389	660.266737790596	
56	13.938928571429	797.746441619204	1000.412837340376	421.199973567602	971.041355538214	1433.363632243472	247.485910899083	1070.658414448124	1364.382863033016	410.397865949797	982.317334699065	1431.918943337882	582.747041127818	946.311527298238	1492.702479575431	405.263580318088	1025.377911670619	936.721523295013	543.426532920850	1019.422940611926	962.721336201496	269.626695196624	1071.315141712331	735.609483276812	519.639504600385	996.071592005479	626.355252382844	586.771978340402	1075.365997584300	567.757173706402	510.799963418644	1068.703694517766	460.001478070578	534.146394199526	1073.569566937437	751.034948775915	310.878279682650	993.233820855726	625.622189205959	254.011295226128	1075.228420000785	555.778994702761	326.650995773593	1076.546351810171	484.768316449425	339.232534209756	1045.596884289312	410.842886621153	333.794538022955	954.241830161071	298.367701742789	281.518745522513	991.853461156673	189.243479434794	361.928408574791	991.324356841417	393.561449092746	546.599575626546	871.000522829915	356.058090918251	608.773945786899	858.374811712740	243.741071611811	566.308189735931	659.813892314007	178.174018301459	534.560803148051	823.412746643568	127.627844547632	597.214623901253	713.504302970683	133.492052890054	620.375703569236	883.729211777818	32.379370898454	644.073588776644	853.575042611583	38.256697400156	401.378112103001	930.845320489463	35.965980487646	323.614263764216	1013.549705229560	96.527650996814	353.881513823590	1142.559428758652	44.535159738599	330.997132117037	1015.990197777590	1099.011772504030	95.073607157538	1142.326891057767	869.489095462870	124.187579419018	1114.825223923533	1109.953913819664	693.891818777237	1355.667388342082	1013.264270742861	667.903109324405	
57	13.962000000000	796.600456609160	998.909817807279	417.530351990855	972.227124402633	1432.483529126221	246.747122818512	1069.455376288976	1363.239557012423	410.915008952757	978.767556182723	1430.351107138023	582.309743103216	945.471153020420	1491.567952238812	404.479836938631	1023.576934216893	935.769478772271	541.893338128325	1020.303628938770	962.066535279504	268.000516214905	1075.744415085970	737.820258817540	515.935168672901	1004.691752695855	626.265035553004	582.490960525626	1085.299256796958	570.064974448973	505.389946415363	1081.032036669676	460.838103438238	528.939821325681	1074.425442268064	750.169799090597	310.120481531929	994.524330732588	624.426148861010	253.254327112755	1075.739677078644	554.789079201252	327.171079895433	1077.038444924952	483.494697232621	339.846051374356	1045.045387770838	409.489326976499	334.243869942722	952.938069158590	297.873248179690	281.678603283836	988.627668910928	188.478633996210	362.308487803172	1002.096816626598	394.732393573667	541.886017208833	880.141302153530	360.675162776197	603.378826705867	865.416998389297	248.160818163805	562.146653678305	666.025140798210	189.452229455927	528.255341265170	826.895296818522	131.652452177554	594.112559402176	716.372606331954	142.843338641392	615.301127533037	881.534825097153	32.019554047157	642.764160790829	848.960330835967	38.261282191219	401.336483327112	926.264503745983	35.996839987497	323.615477783084	1009.039882154186	96.428282278792	354.069744943700	1138.013977545627	44.252073193148	331.044054575900	1024.874962657378	1098.789488325346	94.899538480222	1162.912024153030	876.530918247723	126.057909654965	1097.743897002871	1102.018258853620	695.173059491822	1332.359059752582	989.989888711667	675.222943193893	
